<svg xmlns="http://www.w3.org/2000/svg" viewBox="0 0 512 512">
  <path fill="#444444" d="M503.5 204.6L502.8 202.8L433.1 21.02C431.7 17.45 429.2 14.43 425.9 12.47C423.5 11.04 420.8 10.26 418 10.18C415.2 10.1 412.5 10.72 410 12.01C407.5 13.3 405.3 15.22 403.7 17.57C402.1 19.92 401.1 22.62 400.8 25.43L383.3 151.8H128.7L111.2 25.43C110.9 22.62 109.9 19.92 108.3 17.57C106.7 15.22 104.5 13.3 102 12.01C99.53 10.72 96.79 10.1 93.99 10.18C91.19 10.26 88.49 11.04 86.07 12.47C82.82 14.43 80.26 17.45 78.92 21.02L9.184 202.8L8.543 204.6C-1.484 230.8-2.768 259.5 4.879 286.5C12.53 313.5 28.71 337.3 51.02 354.4L51.28 354.6L51.89 355.1L158.1 434.7L210.6 474.5L242.6 498.7C246.4 501.6 251.1 503.2 256 503.2C260.9 503.2 265.6 501.6 269.4 498.7L301.4 474.5L353.9 434.7L461.1 354.6L461.4 354.3C483.6 337.2 499.6 313.4 507.2 286.5C514.8 259.6 513.5 231 503.5 204.6z"/>
</svg>
